<svg width="256" height="256" viewBox="0 0 256 256" fill="none" xmlns="http://www.w3.org/2000/svg">
<path d="M80.5091 154.595C83.0951 156.751 86.3754 157.937 89.7458 157.937C95.4956 157.937 100.818 154.383 103.293 148.916C104.293 146.735 104.802 144.406 104.802 141.996C104.802 135.032 100.607 128.928 94.4184 126.824C92.9037 126.289 91.332 126.017 89.7458 126.017C83.6825 126.017 78.2276 129.848 75.8226 135.834C75.0488 137.824 74.6547 139.896 74.6547 141.996C74.6547 146.932 76.868 151.662 80.5091 154.595ZM85.6988 140.215C86.3963 138.479 87.9857 137.355 89.7458 137.355C90.1781 137.355 90.6119 137.431 91.0893 137.598C92.8586 138.2 94.0941 140.008 94.0941 141.996C94.0941 142.673 93.9497 143.334 93.6479 143.987C92.5047 146.511 89.1444 147.356 87.0637 145.631C85.999 144.773 85.3627 143.413 85.3627 141.996C85.3627 141.37 85.476 140.787 85.6988 140.215Z" fill="url(#paint0_linear_1001_10)"/>
<path d="M17.5357 127.29C22.4528 127.29 26.8303 124.973 29.8752 121.368L39.9198 125.85C39.724 126.529 39.509 127.208 39.3399 127.887H32.8166C30.1606 127.887 27.9054 129.951 27.5202 132.733C27.1141 135.656 26.9085 138.771 26.9085 141.995C26.9085 145.239 27.1089 148.256 27.5202 151.219C27.9054 154.002 30.1606 156.065 32.8166 156.065H39.3277C40.4988 160.833 42.3027 165.463 44.6659 169.763L40.0753 174.647C38.2001 176.64 37.991 179.788 39.5821 182.041C41.9022 185.325 44.508 188.316 47.3313 191.023L35.3525 207.48C32.3819 206.044 29.0933 205.223 25.6206 205.223C12.6384 205.223 2.07527 216.408 2.07527 230.154C2.07527 243.899 12.6384 255.083 25.6206 255.083C38.6027 255.083 49.1658 243.899 49.1658 230.154C49.1658 224.177 47.1655 218.688 43.8413 214.389L57.5773 195.518C58.053 195.255 58.5186 194.96 58.9148 194.539L63.5128 189.671C67.5577 192.187 71.8764 194.08 76.4217 195.331V202.234C76.4217 205.046 78.3698 207.434 80.9982 207.842C83.9155 208.296 86.8591 208.527 89.7452 208.527C92.6088 208.527 95.54 208.296 98.4573 207.842C101.086 207.434 103.034 205.046 103.034 202.234V195.334C107.607 194.081 111.926 192.191 115.95 189.68L120.539 194.539C122.418 196.534 125.396 196.759 127.531 195.071C132.221 191.358 136.379 186.981 139.891 182.065C141.503 179.808 141.297 176.638 139.407 174.638L137.497 172.616L183.394 196.031C182.29 199.749 181.69 203.7 181.69 207.798C181.69 229.467 198.341 247.095 218.807 247.095C239.273 247.095 255.922 229.467 255.922 207.798C255.922 186.128 239.273 168.499 218.807 168.499C206.023 168.499 194.728 175.378 188.05 185.824L138.762 160.679C139.274 159.165 139.741 157.631 140.124 156.065H146.639C149.295 156.065 151.55 154.002 151.935 151.219C152.347 148.256 152.547 145.239 152.547 141.995C152.547 138.771 152.341 135.656 151.935 132.733C151.55 129.951 149.295 127.887 146.639 127.887H140.119C138.938 123.077 137.15 118.504 134.774 114.221L139.372 109.353C141.248 107.368 141.468 104.225 139.886 101.969C136.435 97.0419 132.297 92.6318 127.587 88.8618C125.455 87.1602 122.459 87.3763 120.574 89.3764L115.934 94.2885C114.232 93.2344 112.485 92.3077 110.713 91.4867L120.425 59.5388C121.437 59.6565 122.463 59.7264 123.505 59.7264C139.035 59.7264 151.669 46.348 151.669 29.9047C151.669 13.4613 139.035 0.0830161 123.505 0.0830161C107.975 0.0830161 95.3397 13.4613 95.3397 29.9047C95.3397 41.2546 101.362 51.1388 110.199 56.1767L102.817 80.4607C102.328 78.2337 100.673 76.4548 98.4573 76.1108C92.917 75.249 86.4934 75.2524 80.9982 76.1108C78.3698 76.5185 76.4217 78.9063 76.4217 81.7183V88.6219C71.8764 89.8727 67.5577 91.7659 63.5144 94.2811L58.8821 89.3764C56.9925 87.3763 53.9986 87.1602 51.8689 88.8618C47.1581 92.6318 43.0207 97.0419 39.57 101.969C37.9875 104.225 38.2071 107.368 40.0841 109.353L44.6816 114.221C44.4731 114.6 44.316 115.032 44.115 115.418L34.035 110.92C34.0622 110.509 34.1515 110.117 34.1515 109.698C34.1515 99.9976 26.6976 92.1059 17.5357 92.1059C8.37377 92.1059 0.921534 99.9976 0.921534 109.698C0.921534 119.399 8.37377 127.29 17.5357 127.29ZM48.9445 134.479C49.4377 131.316 50.3265 128.085 51.5674 124.922C52.7594 121.962 54.2095 119.215 55.8757 116.758C57.406 114.504 57.167 111.407 55.3129 109.444L51.0742 104.956C52.2314 103.589 53.4584 102.283 54.7534 101.039L59.0024 105.537C60.8495 107.497 63.7651 107.75 65.8947 106.146C70.9212 102.354 76.5629 99.88 82.6644 98.7912C85.2417 98.3319 87.1291 95.9696 87.1291 93.2014V86.8652C88.834 86.7822 90.622 86.7822 92.3263 86.8652V93.2014C92.3263 95.9548 94.1965 98.3114 96.7584 98.7855C98.78 99.1602 100.659 99.6565 102.466 100.301C106.378 101.59 110.115 103.559 113.571 106.154C115.701 107.75 118.61 107.494 120.454 105.537L124.703 101.039C125.997 102.283 127.224 103.589 128.381 104.956L124.143 109.444C122.294 111.4 122.05 114.486 123.568 116.74C127.151 122.066 129.488 128.041 130.515 134.497C130.948 137.227 133.179 139.225 135.793 139.225H141.778C141.819 140.133 141.839 141.057 141.839 141.995C141.839 142.929 141.82 143.838 141.78 144.728H135.793C133.176 144.728 130.941 146.731 130.513 149.467C129.877 153.508 128.716 157.381 127.032 161.044C126.088 163.171 124.96 165.209 123.587 167.271C122.087 169.527 122.336 172.595 124.178 174.546L128.388 179.004C127.219 180.366 125.983 181.665 124.685 182.896L120.454 178.415C118.601 176.45 115.673 176.199 113.543 177.821C108.587 181.593 102.951 184.063 96.7917 185.162C94.2137 185.621 92.3263 187.983 92.3263 190.751V197.113C90.5802 197.215 88.8689 197.211 87.1291 197.113V190.751C87.1291 187.983 85.2417 185.621 82.6644 185.162C76.5629 184.073 70.9212 181.598 65.8947 177.806C63.7651 176.201 60.8495 176.454 59.0024 178.415L54.769 182.896C53.4792 181.68 52.2488 180.382 51.0794 179.013L55.2866 174.536C57.1219 172.584 57.3673 169.517 55.8649 167.268C52.3116 161.941 49.9187 155.79 48.9462 149.483C48.5227 146.741 46.285 144.728 43.662 144.728H37.6755C37.6354 143.838 37.6162 142.929 37.6162 141.995C37.6162 141.057 37.6372 140.133 37.6772 139.225H43.662C46.2815 139.225 48.5175 137.217 48.9445 134.479Z" fill="url(#paint1_linear_1001_10)"/>
<defs>
<linearGradient id="paint0_linear_1001_10" x1="74.6547" y1="126.017" x2="107.292" y2="150.794" gradientUnits="userSpaceOnUse">
<stop stop-color="#F6B200"/>
<stop offset="1" stop-color="#E9C871"/>
</linearGradient>
<linearGradient id="paint1_linear_1001_10" x1="0.921534" y1="0.0830161" x2="265.283" y2="212.576" gradientUnits="userSpaceOnUse">
<stop stop-color="#FCBF20"/>
</linearGradient>
</defs>
</svg>
